<?xml version="1.0" standalone="no"?>
<!DOCTYPE svg PUBLIC "-//W3C//DTD SVG 20010904//EN"
 "http://www.w3.org/TR/2001/REC-SVG-20010904/DTD/svg10.dtd">
<svg version="1.0" xmlns="http://www.w3.org/2000/svg"
 width="1024.000000pt" height="1024.000000pt" viewBox="0 0 1024.000000 1024.000000"
 preserveAspectRatio="xMidYMid meet">

<g transform="translate(0.000000,1024.000000) scale(0.100000,-0.100000)"
fill="#000000" stroke="none">
<path d="M4915 8184 c-214 -25 -406 -67 -572 -125 -592 -209 -1095 -698 -1333
-1294 -130 -326 -188 -732 -145 -1019 77 -512 477 -1221 1469 -2606 76 -107
200 -280 274 -385 75 -104 160 -224 191 -265 30 -41 113 -156 184 -255 71 -99
133 -180 137 -180 5 0 44 50 87 110 43 61 101 141 128 179 28 38 107 148 177
245 69 97 140 194 156 216 337 463 798 1130 1023 1480 387 602 598 1036 669
1370 84 399 -18 952 -252 1370 -411 732 -1158 1170 -1983 1163 -99 0 -193 -3
-210 -4z m-918 -1621 c58 -92 308 -480 447 -693 l128 -195 -306 -3 c-167 -1
-444 -1 -615 0 l-311 3 113 175 c62 96 179 276 259 400 80 124 166 258 191
298 26 39 49 72 52 72 3 0 22 -26 42 -57z m2438 -168 c71 -110 205 -316 297
-459 93 -142 167 -260 165 -262 -2 -2 -279 -3 -615 -2 l-612 3 173 266 c94
146 208 322 252 390 189 295 187 292 200 277 6 -7 70 -103 140 -213z m-1074
-21 c188 -26 350 -72 512 -146 51 -24 66 -35 62 -47 -3 -9 -63 -102 -132 -209
l-126 -192 -18 69 c-25 99 -60 161 -134 240 -109 115 -242 171 -405 171 -160
0 -284 -51 -394 -163 -79 -78 -118 -146 -145 -252 l-17 -65 -133 206 c-73 113
-131 207 -129 209 11 10 104 52 177 80 260 100 602 138 882 99z"/>
<path d="M3838 6368 c-64 -101 -115 -184 -114 -186 2 -2 29 10 61 25 l57 28
37 -42 c20 -24 39 -43 43 -43 3 0 27 32 54 70 26 39 49 70 50 70 2 0 32 -16
67 -35 35 -19 67 -35 71 -35 3 0 -20 39 -52 88 -32 48 -80 122 -106 165 -27
42 -49 77 -50 77 0 0 -54 -82 -118 -182z"/>
<path d="M6263 6513 c-30 -42 -183 -284 -183 -289 0 -2 28 10 63 28 34 18 65
34 68 36 4 1 28 -29 54 -68 27 -38 52 -70 56 -70 4 0 23 19 43 42 l35 43 57
-28 c31 -15 58 -26 60 -25 4 4 -202 327 -221 346 -10 11 -16 9 -32 -15z"/>
</g>
</svg>
