<?xml version="1.0" standalone="no"?>
<!DOCTYPE svg PUBLIC "-//W3C//DTD SVG 20010904//EN"
 "http://www.w3.org/TR/2001/REC-SVG-20010904/DTD/svg10.dtd">
<svg version="1.0" xmlns="http://www.w3.org/2000/svg"
 width="1024.000000pt" height="1024.000000pt" viewBox="0 0 1024.000000 1024.000000"
 preserveAspectRatio="xMidYMid meet">

<g transform="translate(0.000000,1024.000000) scale(0.100000,-0.100000)"
fill="#000000" stroke="none">
<path d="M4820 8945 c-716 -71 -1361 -376 -1870 -885 -245 -245 -434 -511
-591 -835 -97 -199 -159 -370 -214 -590 -138 -546 -125 -1036 41 -1572 344
-1109 1405 -2532 2664 -3574 109 -89 256 -199 269 -199 19 0 244 176 438 343
546 469 1097 1061 1515 1627 631 857 1000 1629 1094 2295 28 193 26 569 -4
759 -110 698 -402 1280 -878 1752 -518 513 -1195 827 -1908 884 -165 13 -396
11 -556 -5z m854 -1600 c35 -60 128 -222 206 -360 79 -137 242 -421 363 -630
121 -209 256 -443 300 -520 44 -77 108 -187 142 -245 202 -346 267 -461 263
-465 -3 -3 -829 -4 -1836 -3 l-1831 3 161 260 c88 143 263 424 388 625 124
201 280 452 346 557 65 106 122 193 125 193 3 0 52 -71 109 -157 389 -593 351
-540 369 -514 13 20 296 511 710 1233 85 148 98 166 109 150 7 -9 41 -66 76
-127z"/>
<path d="M5556 7148 c-37 -66 -328 -575 -366 -642 l-34 -60 40 24 c21 13 83
52 136 86 l97 63 76 -95 c41 -52 79 -94 84 -94 7 0 73 79 129 154 13 17 27 30
32 29 8 -2 136 -83 221 -139 63 -43 77 -73 -153 326 -75 129 -155 268 -178
307 -23 40 -46 75 -50 78 -5 3 -20 -14 -34 -37z"/>
<path d="M4165 6274 c-71 -113 -138 -219 -148 -235 -18 -27 -11 -25 134 42
143 66 154 69 183 58 17 -7 84 -37 149 -66 65 -29 120 -53 122 -53 3 0 -64
104 -147 230 -82 127 -153 230 -157 230 -3 -1 -64 -93 -136 -206z"/>
</g>
</svg>
