<?xml version="1.0" standalone="no"?>
<!DOCTYPE svg PUBLIC "-//W3C//DTD SVG 20010904//EN"
 "http://www.w3.org/TR/2001/REC-SVG-20010904/DTD/svg10.dtd">
<svg version="1.0" xmlns="http://www.w3.org/2000/svg"
 width="1024.000000pt" height="1024.000000pt" viewBox="0 0 1024.000000 1024.000000"
 preserveAspectRatio="xMidYMid meet">

<g transform="translate(0.000000,1024.000000) scale(0.100000,-0.100000)"
fill="#000000" stroke="none">
<path d="M4954 8849 c-185 -11 -310 -30 -510 -79 -392 -95 -752 -270 -1074
-524 -122 -96 -277 -245 -376 -360 -375 -442 -579 -896 -670 -1491 -20 -136
-24 -479 -6 -615 79 -600 403 -1326 960 -2150 462 -685 1101 -1470 1765 -2168
65 -69 82 -81 92 -70 6 7 72 78 146 157 326 350 717 802 970 1121 458 577 768
1017 1026 1455 510 866 710 1536 649 2165 -100 1021 -711 1888 -1627 2307
-422 193 -885 280 -1345 252z m-1062 -1403 c494 -88 863 -800 953 -1838 9
-100 21 -188 27 -195 16 -19 56 -16 67 5 14 26 -12 322 -45 527 -64 401 -142
669 -274 940 -100 207 -230 379 -367 485 -37 30 -71 56 -76 60 -4 3 34 4 85 2
160 -7 291 -74 434 -224 132 -138 207 -268 289 -500 36 -103 39 -108 66 -108
53 0 54 27 10 159 -22 65 -56 152 -76 192 -86 171 -223 343 -349 436 -47 35
-54 43 -35 43 13 -1 157 -5 319 -10 321 -9 354 -15 465 -76 71 -40 198 -166
257 -254 74 -113 161 -297 217 -462 114 -336 209 -878 256 -1458 19 -222 24
-246 65 -285 37 -36 80 -37 165 -5 53 19 66 21 111 11 197 -44 268 -274 128
-415 -117 -118 -334 -72 -476 100 -142 172 -220 427 -253 824 -38 467 -78 733
-152 1010 -71 271 -209 554 -339 699 -49 54 -63 60 -88 35 -24 -24 -20 -37 37
-110 206 -266 326 -619 406 -1189 19 -139 24 -185 36 -340 22 -282 57 -509
101 -642 59 -178 173 -365 258 -424 20 -13 36 -26 36 -29 0 -3 -107 -3 -238 0
l-238 5 -52 34 c-97 62 -168 163 -238 336 -88 218 -132 476 -180 1050 -10 125
-20 195 -29 204 -16 17 -60 8 -69 -14 -8 -21 40 -573 65 -740 44 -299 83 -443
175 -632 40 -83 70 -129 114 -176 33 -36 60 -67 60 -71 0 -3 -241 -5 -535 -5
-294 1 -535 4 -535 6 0 3 16 24 36 46 86 101 159 317 184 543 15 146 14 560
-3 713 -11 99 -18 127 -32 137 -24 18 -40 18 -55 -2 -11 -12 -11 -44 0 -172
18 -202 15 -579 -4 -709 -46 -300 -133 -475 -265 -532 -63 -27 -265 -33 -321
-9 -51 22 -98 64 -123 112 -32 61 -30 165 4 231 32 63 93 110 163 126 50 11
62 10 128 -12 80 -25 110 -26 145 -4 40 27 54 70 65 207 12 149 -2 582 -27
833 -37 358 -111 739 -186 953 -68 191 -155 341 -252 435 -72 69 -129 104
-217 134 l-65 22 95 0 c52 0 130 -6 172 -13z m289 -1783 c42 -74 44 -126 6
-159 -38 -32 -90 -32 -122 1 -38 37 -33 83 16 166 47 80 50 80 100 -8z m2178
19 c57 -90 63 -140 21 -182 -30 -30 -94 -27 -127 6 -22 22 -25 32 -20 70 5 44
66 154 86 154 5 0 23 -22 40 -48z m-2384 -357 c64 -107 67 -172 9 -226 -37
-35 -121 -34 -158 0 -33 32 -49 87 -36 130 10 37 50 109 88 159 24 33 25 33
43 15 10 -10 34 -45 54 -78z m2604 44 c57 -87 84 -156 77 -197 -12 -77 -105
-124 -174 -88 -64 33 -79 114 -38 201 26 55 82 135 94 135 4 0 22 -23 41 -51z"/>
<path d="M5391 6224 c-57 -97 -65 -125 -51 -169 13 -40 59 -75 98 -75 31 0 79
26 92 49 21 41 12 104 -26 167 -19 32 -43 67 -53 78 -18 18 -20 16 -60 -50z"/>
<path d="M4877 5089 c-80 -122 -86 -191 -21 -248 28 -25 44 -31 79 -31 97 0
145 102 95 201 -33 64 -88 149 -98 149 -4 0 -29 -32 -55 -71z"/>
</g>
</svg>
